
          <svg data-logo="logo" xmlns="http://www.w3.org/2000/svg" viewBox="0 0 46 40">
            <g id="logogram" transform="translate(0, 0) rotate(0)"><path d="M39.3285 32.4471C43.1874 29.0012 45.5538 24.3508 45.5538 19.2338C45.5538 8.61129 35.3562 0 22.7769 0C10.1976 0 0 8.61129 0 19.2338C0 29.8564 10.1976 38.4676 22.7769 38.4676C26.3456 38.4676 29.7226 37.7746 32.7295 36.5391C36.2616 38.7193 40.5891 40.2865 45.3684 39.9559C42.8435 39.3141 40.6717 36.7142 39.3285 32.4471Z" fill="#B6EFA2"/><path d="M39.48 19.2338C39.48 27.061 32.0017 33.4061 22.7769 33.4061C13.552 33.4061 6.07384 27.061 6.07384 19.2338C6.07384 11.4067 13.552 5.06154 22.7769 5.06154C32.0017 5.06154 39.48 11.4067 39.48 19.2338Z" fill="#88E169"/><path d="M33.4061 19.2338C33.4061 24.2656 28.6473 28.3446 22.7769 28.3446C16.9065 28.3446 12.1477 24.2656 12.1477 19.2338C12.1477 14.202 16.9065 10.1231 22.7769 10.1231C28.6473 10.1231 33.4061 14.202 33.4061 19.2338Z" fill="#55AE36"/></g>
            <g id="logotype" transform="translate(46, 20)"></g>
            
          </svg>
        