
          <svg data-logo="logo" xmlns="http://www.w3.org/2000/svg" viewBox="0 0 190 43">
            <g id="logogram" transform="translate(0, 1.5) rotate(0)"><path d="M39.3285 32.4471C43.1874 29.0012 45.5538 24.3508 45.5538 19.2338C45.5538 8.61129 35.3562 0 22.7769 0C10.1976 0 0 8.61129 0 19.2338C0 29.8564 10.1976 38.4676 22.7769 38.4676C26.3456 38.4676 29.7226 37.7746 32.7295 36.5391C36.2616 38.7193 40.5891 40.2865 45.3684 39.9559C42.8435 39.3141 40.6717 36.7142 39.3285 32.4471Z" fill="#B6EFA2"/><path d="M39.48 19.2338C39.48 27.061 32.0017 33.4061 22.7769 33.4061C13.552 33.4061 6.07384 27.061 6.07384 19.2338C6.07384 11.4067 13.552 5.06154 22.7769 5.06154C32.0017 5.06154 39.48 11.4067 39.48 19.2338Z" fill="#88E169"/><path d="M33.4061 19.2338C33.4061 24.2656 28.6473 28.3446 22.7769 28.3446C16.9065 28.3446 12.1477 24.2656 12.1477 19.2338C12.1477 14.202 16.9065 10.1231 22.7769 10.1231C28.6473 10.1231 33.4061 14.202 33.4061 19.2338Z" fill="#55AE36"/></g>
            <g id="logotype" transform="translate(52, 1)"><path fill="#35a834" d="M20.46 34L13.60 34L6.80 8.54L13.49 8.54L16.00 19.80Q16.37 21.51 16.67 23.50Q16.97 25.49 17.26 27.48Q17.55 29.47 17.84 31.25L17.84 31.25L16.72 31.25Q17.06 29.47 17.36 27.48Q17.67 25.49 18.01 23.50Q18.36 21.51 18.77 19.80L18.77 19.80L21.47 8.54L27.60 8.54L30.28 19.80Q30.69 21.51 31.04 23.50Q31.38 25.49 31.69 27.48Q32.01 29.47 32.34 31.25L32.34 31.25L31.19 31.25Q31.50 29.47 31.78 27.48Q32.06 25.49 32.38 23.50Q32.69 21.51 33.05 19.80L33.05 19.80L35.57 8.54L42.25 8.54L35.45 34L28.61 34L25.64 22.24Q25.04 19.83 24.65 17.02Q24.27 14.21 23.76 11.44L23.76 11.44L25.29 11.44Q24.71 14.18 24.39 16.96Q24.06 19.75 23.43 22.24L23.43 22.24L20.46 34ZM48.71 23.10L48.71 23.10L48.71 34L42.74 34L42.74 8.54L48.59 8.54L48.59 19.71L48.21 19.71Q48.91 17.44 50.41 16.05Q51.90 14.65 54.43 14.65L54.43 14.65Q56.43 14.65 57.92 15.54Q59.40 16.43 60.22 18.06Q61.04 19.68 61.04 21.83L61.04 21.83L61.04 34L55.08 34L55.08 22.99Q55.08 21.39 54.26 20.47Q53.44 19.56 51.97 19.56L51.97 19.56Q51.01 19.56 50.27 19.98Q49.53 20.40 49.12 21.18Q48.71 21.97 48.71 23.10ZM68.66 34L62.70 34L62.70 14.89L68.66 14.89L68.66 34ZM65.67 12.65L65.67 12.65Q64.41 12.65 63.50 11.81Q62.60 10.96 62.60 9.78L62.60 9.78Q62.60 8.59 63.50 7.75Q64.41 6.91 65.67 6.91L65.67 6.91Q66.96 6.91 67.86 7.74Q68.77 8.57 68.77 9.78L68.77 9.78Q68.77 10.98 67.86 11.82Q66.96 12.65 65.67 12.65ZM78.39 34.36L78.39 34.36Q75.94 34.36 74.06 33.67Q72.18 32.97 71.00 31.67Q69.82 30.36 69.48 28.53L69.48 28.53L75.02 27.66Q75.38 28.91 76.23 29.54Q77.09 30.17 78.61 30.17L78.61 30.17Q79.86 30.17 80.57 29.74Q81.29 29.30 81.29 28.58L81.29 28.58Q81.29 27.92 80.72 27.51Q80.15 27.11 78.95 26.87L78.95 26.87L75.62 26.22Q72.78 25.68 71.37 24.30Q69.96 22.93 69.96 20.72L69.96 20.72Q69.96 18.81 71.00 17.46Q72.03 16.11 73.92 15.38Q75.81 14.65 78.37 14.65L78.37 14.65Q80.76 14.65 82.53 15.30Q84.30 15.94 85.38 17.12Q86.47 18.31 86.79 19.95L86.79 19.95L81.53 20.79Q81.27 19.83 80.48 19.29Q79.69 18.76 78.47 18.76L78.47 18.76Q77.40 18.76 76.65 19.19Q75.91 19.63 75.91 20.36L75.91 20.36Q75.91 20.94 76.37 21.38Q76.83 21.81 78.06 22.05L78.06 22.05L81.72 22.74Q84.56 23.28 85.95 24.55Q87.34 25.81 87.34 27.90L87.34 27.90Q87.34 29.86 86.19 31.32Q85.03 32.77 83.02 33.56Q81.00 34.36 78.39 34.36ZM94.09 41.14L88.13 41.14L88.13 14.89L94.02 14.89L94.02 18.17L94.23 18.17Q94.59 17.30 95.28 16.50Q95.97 15.70 97.04 15.18Q98.11 14.65 99.63 14.65L99.63 14.65Q101.64 14.65 103.38 15.71Q105.11 16.76 106.18 18.94Q107.25 21.11 107.25 24.46L107.25 24.46Q107.25 27.71 106.22 29.89Q105.20 32.07 103.46 33.17Q101.71 34.27 99.59 34.27L99.59 34.27Q98.14 34.27 97.07 33.79Q96.00 33.30 95.30 32.53Q94.60 31.76 94.23 30.91L94.23 30.91L94.09 30.91L94.09 41.14ZM97.56 29.63L97.56 29.63Q98.70 29.63 99.50 28.98Q100.29 28.34 100.70 27.17Q101.11 26.00 101.11 24.46L101.11 24.46Q101.11 22.91 100.70 21.76Q100.29 20.60 99.51 19.96Q98.72 19.32 97.56 19.32L97.56 19.32Q96.41 19.32 95.61 19.94Q94.81 20.57 94.38 21.72Q93.95 22.87 93.95 24.46L93.95 24.46Q93.95 26.02 94.38 27.18Q94.81 28.34 95.62 28.98Q96.43 29.63 97.56 29.63ZM114.13 34L108.17 34L108.17 14.89L113.96 14.89L113.96 18.38L114.17 18.38Q114.68 16.48 115.87 15.57Q117.06 14.65 118.63 14.65L118.63 14.65Q119.04 14.65 119.49 14.71Q119.94 14.76 120.32 14.86L120.32 14.86L120.32 20.05Q119.89 19.90 119.20 19.82Q118.51 19.75 117.96 19.75L117.96 19.75Q116.87 19.75 116.00 20.23Q115.13 20.72 114.63 21.58Q114.13 22.43 114.13 23.58L114.13 23.58L114.13 34ZM125.94 34.34L125.94 34.34Q124.11 34.34 122.69 33.72Q121.26 33.09 120.46 31.84Q119.65 30.58 119.65 28.70L119.65 28.70Q119.65 27.11 120.21 26.02Q120.76 24.93 121.75 24.24Q122.75 23.56 124.03 23.20Q125.31 22.84 126.76 22.72L126.76 22.72Q128.39 22.58 129.38 22.42Q130.37 22.26 130.83 21.93Q131.29 21.61 131.29 21.03L131.29 21.03L131.29 20.96Q131.29 20.29 130.98 19.83Q130.68 19.37 130.09 19.13Q129.51 18.89 128.69 18.89L128.69 18.89Q127.87 18.89 127.23 19.13Q126.59 19.37 126.18 19.82Q125.77 20.26 125.60 20.86L125.60 20.86L120.20 20.16Q120.58 18.52 121.68 17.28Q122.78 16.04 124.57 15.35Q126.35 14.65 128.74 14.65L128.74 14.65Q130.52 14.65 132.07 15.07Q133.61 15.49 134.78 16.30Q135.94 17.12 136.59 18.30Q137.24 19.49 137.24 21.03L137.24 21.03L137.24 34L131.63 34L131.63 31.32L131.48 31.32Q130.97 32.31 130.17 32.97Q129.38 33.64 128.33 33.99Q127.27 34.34 125.94 34.34ZM127.75 30.39L127.75 30.39Q128.76 30.39 129.57 29.98Q130.38 29.57 130.86 28.86Q131.34 28.14 131.34 27.20L131.34 27.20L131.34 25.37Q131.09 25.51 130.70 25.63Q130.32 25.75 129.85 25.84Q129.39 25.93 128.93 26.01Q128.47 26.09 128.04 26.16L128.04 26.16Q127.17 26.28 126.56 26.57Q125.94 26.86 125.62 27.32Q125.29 27.78 125.29 28.43L125.29 28.43Q125.29 29.06 125.62 29.50Q125.94 29.93 126.49 30.16Q127.04 30.39 127.75 30.39Z"/></g>
            
          </svg>
        